<?xml version="1.0" encoding="UTF-8" standalone="no"?>
<svg id="Bold" xmlns="http://www.w3.org/2000/svg" height="50" width="50" enable-background="new 0 0 24 24" viewBox="0 0 24 24" fill="#9c9c9c">
 <path d="m12 24c6.629 0 12-5.371 12-12s-5.371-12-12-12-12 5.371-12 12 5.371 12 12 12zm-6.509-12.26 11.57-4.461c0.537-0.194 1.006 0.131 0.832 0.943l0.001-0.001-1.97 9.281c-0.146 0.658-0.537 0.818-1.084 0.508l-3-2.211-1.447 1.394c-0.16 0.16-0.295 0.295-0.605 0.295l0.213-3.053 5.56-5.023c0.242-0.213-0.054-0.333-0.373-0.121l-6.871 4.326-2.962-0.924c-0.643-0.204-0.657-0.643 0.136-0.953z"/>
</svg>
